# xmcd
#
# Track frame offsets: 
#        150
#        17238
#        36925
#        52099
#        66409
#        82731
#        102964
#        125406
#        140960
#        161863
#        175075
#        191301
#        212205
#
# Disc length: 3039 seconds
#
# Revision: 12
# Processed by: cddbd v1.5.2PL0 Copyright (c) Steve Scherf et al.
# Submitted via: ExactAudioCopyFreeDBPlugin 1.0
#
DISCID=be0bdd0d
DTITLE=Kelly Willis - What I Deserve
DYEAR=1999
DGENRE=Country
TTITLE0=Take Me Down
TTITLE1=What I Deserve
TTITLE2=Heaven Bound
TTITLE3=Talk Like That
TTITLE4=Not Forgotten You
TTITLE5=Wrapped
TTITLE6=Cradle Of Love
TTITLE7=Got a Feelin' For Ya
TTITLE8=Time Has Told Me
TTITLE9=Fading Fast
TTITLE10=Happy With That
TTITLE11=They're Blind
TTITLE12=Not Long For This World
EXTD=YEAR: 1999
EXTT0=
EXTT1=
EXTT2=
EXTT3=
EXTT4=
EXTT5=
EXTT6=
EXTT7=
EXTT8=
EXTT9=
EXTT10=
EXTT11=
EXTT12=
PLAYORDER=
